<?xml version="1.0" encoding="utf-8"?>
<!-- Generator: Adobe Illustrator 21.0.0, SVG Export Plug-In . SVG Version: 6.00 Build 0)  -->
<svg version="1.1" id="Capa_1" xmlns="http://www.w3.org/2000/svg" xmlns:xlink="http://www.w3.org/1999/xlink" x="0px" y="0px"
	 viewBox="0 0 512 512" style="enable-background:new 0 0 512 512;" xml:space="preserve">
<style type="text/css">
	.st0{fill:#364061;}
	.st1{fill:#1ABB9C;}
	.st2{opacity:0.3;enable-background:new    ;}
	.st3{enable-background:new    ;}
	.st4{opacity:0.3;}
	.st5{fill:#DDDDDB;}
	.st6{fill:#DB8D07;}
</style>
<g>
	<path class="st0" d="M307.2,132.3c-5.1,0-8.5-3.4-8.5-8.5s3.4-8.5,8.5-8.5h8.5c5.1,0,8.5-3.4,8.5-8.5V4.3h-17.1v6l-163,113.5h26.5
		V192L307.2,55.5v42.7c-14.5,0-25.6,11.1-25.6,25.6s11.1,25.6,25.6,25.6h34.1v-17.1H307.2z"/>
	<path class="st0" d="M8.5,345.6l42.7,93.9h409.6l42.7-110.9L8.5,345.6z"/>
	<path class="st0" d="M170.7,192v-68.3h-26.5H34.1v221l31.6-0.9l105-4.3L170.7,192L170.7,192z"/>
</g>
<polygon class="st1" points="298.7,183.5 298.7,268.8 196.3,268.8 196.3,338.8 256,337.1 298.7,335.4 328.5,334.5 401.1,331.9 
	401.1,268.8 401.1,183.5 "/>
<polygon class="st0" points="486.4,294.4 460.8,294.4 435.2,294.4 435.2,331.1 486.4,329.4 "/>
<g class="st2">
	<polygon points="196.3,330.2 196.3,338.8 256,337.1 298.7,335.4 328.5,334.5 401.1,331.9 401.1,323.4 	"/>
</g>
<g class="st3">
	<g class="st4">
		<polygon points="34.1,336.2 34.1,344.7 65.7,343.9 170.7,339.6 170.7,331.1 		"/>
	</g>
	<g class="st4">
		<polygon points="179.2,183.5 179.2,175.8 179.2,107.5 167.3,107.5 144.2,123.7 170.7,123.7 170.7,192 		"/>
	</g>
</g>
<g>
	<rect x="59.7" y="149.3" class="st5" width="17.1" height="34.1"/>
	<rect x="93.9" y="149.3" class="st5" width="17.1" height="34.1"/>
	<rect x="128" y="149.3" class="st5" width="17.1" height="34.1"/>
	<rect x="51.2" y="217.6" class="st5" width="102.4" height="17.1"/>
	<rect x="51.2" y="251.7" class="st5" width="102.4" height="17.1"/>
</g>
<polygon class="st0" points="486.4,98.1 469.3,98.1 469.3,38.4 452.3,38.4 452.3,64 435.2,64 435.2,81.1 452.3,81.1 452.3,294.4 
	469.3,294.4 469.3,115.2 486.4,115.2 "/>
<g>
	<rect x="401.1" y="354.1" class="st5" width="17.1" height="17.1"/>
	<rect x="435.2" y="354.1" class="st5" width="17.1" height="17.1"/>
	<rect x="366.9" y="354.1" class="st5" width="17.1" height="17.1"/>
</g>
<g>
	<rect y="430.9" class="st6" width="512" height="17.1"/>
	<rect x="384" y="456.5" class="st6" width="110.9" height="17.1"/>
	<rect x="298.7" y="490.7" class="st6" width="51.2" height="17.1"/>
	<rect x="221.9" y="473.6" class="st6" width="34.1" height="17.1"/>
	<rect y="465.1" class="st6" width="59.7" height="17.1"/>
	<rect x="76.8" y="465.1" class="st6" width="17.1" height="17.1"/>
</g>
</svg>
