<?xml version="1.0" encoding="utf-8"?>
<!-- Generator: Adobe Illustrator 21.0.0, SVG Export Plug-In . SVG Version: 6.00 Build 0)  -->
<svg version="1.1" id="Capa_1" xmlns="http://www.w3.org/2000/svg" xmlns:xlink="http://www.w3.org/1999/xlink" x="0px" y="0px"
	 viewBox="0 0 512 512" style="enable-background:new 0 0 512 512;" xml:space="preserve">
<style type="text/css">
	.st0{fill:#DB8D07;}
	.st1{fill:#2A3F54;}
	.st2{fill:#DDDDDB;}
	.st3{fill:#1ABB9C;}
	.st4{fill:#841F19;}
	.st5{opacity:0.3;enable-background:new    ;}
	.st6{enable-background:new    ;}
	.st7{opacity:0.3;}
</style>
<g>
	<path class="st0" d="M35.3,419.3c0,24.7,19.4,44.1,44.1,44.1s44.1-19.4,44.1-44.1H35.3z"/>
	<path class="st0" d="M203,419.3c0,24.7,19.4,44.1,44.1,44.1s44.1-19.4,44.1-44.1H203z"/>
	<path class="st0" d="M467.9,463.4c24.7,0,44.1-19.4,44.1-44.1h-88.3C423.7,444,443.1,463.4,467.9,463.4z"/>
</g>
<path class="st1" d="M167.7,419.3V198.6H44.1c-9.7,0-17.7,7.9-17.7,17.7v81.2L8.8,308.1c-5.3,3.5-8.8,8.8-8.8,15v96.2L167.7,419.3
	L167.7,419.3z"/>
<rect x="44.1" y="216.3" class="st2" width="105.9" height="61.8"/>
<rect x="220.7" y="216.3" class="st3" width="282.5" height="123.6"/>
<polygon class="st4" points="485.5,48.6 414.9,48.6 414.9,101.5 388.4,101.5 450.2,154.5 512,101.5 485.5,101.5 "/>
<g class="st5">
	<polygon points="503.2,101.5 445.8,151 450.2,154.5 512,101.5 	"/>
</g>
<g class="st5">
	<rect x="476.7" y="48.6" width="8.8" height="53"/>
</g>
<polygon class="st4" points="326.6,48.6 256,48.6 256,101.5 229.5,101.5 291.3,154.5 353.1,101.5 326.6,101.5 "/>
<g class="st5">
	<polygon points="344.3,101.5 286.9,151 291.3,154.5 353.1,101.5 	"/>
</g>
<g class="st6">
	<g class="st7">
		<rect x="317.8" y="48.6" width="8.8" height="53"/>
	</g>
	<g class="st7">
		<path d="M36.2,428.1h86.5c0.9-2.6,0.9-6.2,0.9-8.8H35.3C35.3,422,35.3,425.5,36.2,428.1z"/>
	</g>
	<g class="st7">
		<polygon points="229.5,331 229.5,216.3 220.7,216.3 220.7,339.9 503.2,339.9 503.2,331 		"/>
	</g>
</g>
<path class="st1" d="M203,339.9V172.1c0-5.3-3.5-8.8-8.8-8.8H97.1V181h88.3v229.5c0,5.3,3.5,8.8,8.8,8.8H512v-79.4H203z"/>
<g>
	<rect x="105.9" y="295.7" class="st2" width="44.1" height="17.7"/>
</g>
<g>
	<g class="st7">
		<rect x="211.9" y="375.2" class="st3" width="282.5" height="17.7"/>
	</g>
	<g class="st7">
		<path class="st3" d="M203.9,428.1h86.5c0.9-2.6,0.9-6.2,0.9-8.8H203C203,422,203,425.5,203.9,428.1z"/>
	</g>
	<g class="st7">
		<path class="st3" d="M424.6,428.1h86.5c0.9-2.6,0.9-6.2,0.9-8.8h-88.3C423.7,422,423.7,425.5,424.6,428.1z"/>
	</g>
</g>
</svg>
