<?xml version="1.0" encoding="utf-8"?>
<!-- Generator: Adobe Illustrator 21.0.0, SVG Export Plug-In . SVG Version: 6.00 Build 0)  -->
<svg version="1.1" id="Capa_1" xmlns="http://www.w3.org/2000/svg" xmlns:xlink="http://www.w3.org/1999/xlink" x="0px" y="0px"
	 viewBox="0 0 512 512" style="enable-background:new 0 0 512 512;" xml:space="preserve">
<style type="text/css">
	.st0{fill:#2A3F54;}
	.st1{fill:#1ABB9C;}
	.st2{opacity:0.3;enable-background:new    ;}
	.st3{enable-background:new    ;}
	.st4{opacity:0.3;}
	.st5{fill:#DB8D07;}
</style>
<g>
	<path class="st0" d="M306.7,394.6c-0.9-2.6-0.9-4.3-1.7-6.9c0-0.9,0-2.6-0.9-3.5c0-1.7-0.9-3.5-0.9-5.2c0-3.5-0.9-6.1-0.9-9.5
		c0-57.2,46.8-104,104-104c3.5,0,6.1,0,9.5,0.9c0.9,0,1.7,0,2.6,0c2.6,0,4.3,0.9,6.9,0.9c0.9,0,1.7,0,2.6,0.9
		c2.6,0.9,6.1,1.7,8.7,2.6h0.9c2.6,0.9,5.2,1.7,6.9,2.6c0.9,0,1.7,0.9,2.6,0.9c1.7,0.9,3.5,1.7,5.2,2.6c0.9,0.9,1.7,0.9,2.6,1.7
		c2.6,1.7,5.2,2.6,6.9,4.3c0.9,0.9,1.7,0.9,2.6,1.7c1.7,0.9,3.5,2.6,4.3,3.5c0.9,0.9,1.7,1.7,3.5,2.6c0.9,0.9,2.6,2.6,3.5,3.5
		s1.7,1.7,2.6,2.6c1.7,1.7,3.5,3.5,5.2,5.2c0.9,0.9,1.7,2.6,3.5,3.5c0.9,0.9,1.7,2.6,2.6,3.5s1.7,2.6,2.6,3.5s1.7,2.6,1.7,3.5
		c0.9,1.7,1.7,2.6,2.6,4.3c0.9,2.6,2.6,4.3,3.5,6.9V221.3H381.2H259.9v181.9h49.4c-0.9-2.6-1.7-5.2-2.6-7.8L306.7,394.6L306.7,394.6
		z"/>
	<path class="st0" d="M181.9,221.3v52H95.3v-52h-78v181.9h242.6V221.3H181.9z M43.3,368.6h17.3H43.3z M78,368.6h17.3H78z
		 M112.6,368.6h17.3H112.6z"/>
</g>
<polygon class="st1" points="181.9,273.3 181.9,221.3 138.6,221.3 95.3,221.3 95.3,273.3 "/>
<path class="st0" d="M259.9,221.3h121.3V39.4h-78v52h-86.6v-52h-78v181.9h43.3H259.9z M251.2,186.7h-17.3H251.2z M216.6,186.7h-17.3
	H216.6z M181.9,186.7h-17.3H181.9z"/>
<g>
	<rect x="216.6" y="39.4" class="st1" width="86.6" height="52"/>
	<path class="st1" d="M496.4,315.8c-0.9-0.9-1.7-2.6-1.7-3.5c-0.9-1.7-1.7-2.6-2.6-3.5s-1.7-2.6-2.6-3.5c-0.9-1.7-1.7-2.6-3.5-3.5
		c-1.7-1.7-3.5-3.5-5.2-5.2c-0.9-0.9-1.7-1.7-2.6-2.6s-2.6-2.6-3.5-3.5s-1.7-1.7-3.5-2.6s-3.5-2.6-4.3-3.5c-0.9-0.9-1.7-0.9-2.6-1.7
		c-2.6-1.7-4.3-2.6-6.9-4.3c-0.9-0.9-1.7-0.9-2.6-1.7c-1.7-0.9-3.5-1.7-5.2-2.6c-0.9,0-1.7-0.9-2.6-0.9c-2.6-0.9-5.2-1.7-6.9-2.6
		h-0.9c-2.6-0.9-6.1-1.7-8.7-2.6c-0.9,0-1.7,0-2.6-0.9c-2.6,0-4.3-0.9-6.9-0.9c-0.9,0-1.7,0-2.6,0c-5.2-1.7-7.8-1.7-11.3-1.7
		c-57.2,0-104,46.8-104,104c0,3.5,0,6.1,0.9,9.5c0,1.7,0.9,3.5,0.9,5.2c0,0.9,0,2.6,0.9,3.5c0.9,2.6,0.9,4.3,1.7,6.9
		c0,0.9,0,0.9,0,1.7c0.9,2.6,1.7,5.2,2.6,7.8l0,0C324,444,363,472.6,408,472.6c57.2,0,104-46.8,104-104c0-17.3-4.3-33.8-12.1-48.5
		C498.1,319.2,497.3,317.5,496.4,315.8z"/>
</g>
<g class="st2">
	<rect x="259.9" y="221.3" width="8.7" height="173.3"/>
</g>
<g class="st3">
	<g class="st4">
		<rect x="138.6" y="212.7" width="242.6" height="8.7"/>
	</g>
	<g class="st4">
		<path d="M309.3,403.3c-0.9-2.6-1.7-5.2-2.6-7.8v-0.9H0v17.3h312.7C311.9,409.3,310.1,405.9,309.3,403.3z"/>
	</g>
</g>
<g>
	<rect x="43.3" y="360" class="st5" width="17.3" height="17.3"/>
	<rect x="78" y="360" class="st5" width="17.3" height="17.3"/>
	<rect x="112.6" y="360" class="st5" width="17.3" height="17.3"/>
	<rect x="164.6" y="178" class="st5" width="17.3" height="17.3"/>
	<rect x="199.3" y="178" class="st5" width="17.3" height="17.3"/>
	<rect x="233.9" y="178" class="st5" width="17.3" height="17.3"/>
</g>
<path class="st0" d="M443.4,321.9h-12.1c-1.5,0-2.8-0.6-2.8-2.1v-12.1c0-1.5,1.2-2.8,2.8-2.8s2.8,1.2,2.8,2.8v8.6h9.3
	c1.5,0,2.8,1.2,2.8,2.8S444.9,321.9,443.4,321.9z M451.7,368c-0.8,0-2.7,0.3-4.6,0.9c-0.5-6.7-6.1-12-12.9-12
	c-3.1,0-5.9,1.1-8.1,2.9c-1.6-5-6-8.4-11.4-8.4c-3.6,0-6.7,1.5-9,3.9l-0.6-16c2.3-1.6,4.2-3.6,5.8-5.9c4.5,6.4,12,10.6,20.4,10.6
	c13.8,0,25-11.2,25-25s-11.2-25-25-25c-8.4,0-15.9,4.2-20.4,10.6c-4.5-6.4-12-10.6-20.4-10.6c-13.8,0-25,11.2-25,25
	c0,9.6,5.5,17.9,13.4,22.1l0.8,39.2c-1.5,0.8-3.8,2.3-6.7,4.9c-10.1,9.2-13.4,31.3-2,48.4c12.7,19.1,27.5,27.2,49.6,27.2
	c23.4,0,31.3-11.8,37.3-23.8c5.8-11.6,5.9-55.9,5.9-57.8C463.7,373.2,458.1,368,451.7,368z M431.2,299.4c10.7,0,19.5,8.7,19.5,19.5
	s-8.7,19.5-19.5,19.5c-7.6,0-14.1-4.4-17.4-10.7c-1.3-2.6-2.1-5.6-2.1-8.8c0-3.2,0.8-6.1,2.1-8.8
	C417.1,303.7,423.6,299.4,431.2,299.4z M452.9,434.5c-5.7,11.3-12,20.7-32.3,20.7c-20.3,0-33.3-7.2-45-24.7
	c-6.8-10.2-9.7-31.4,1.1-41.2c1.2-1.1,2.2-1.9,3.1-2.5l0.4,19.4c0,1.5,1.2,2.8,2.8,2.7c1.5,0,2.8-1.3,2.7-2.8l-1.8-85.3
	c0-4.9,3.1-8.3,7.4-8.3c4.4,0,7.4,3.4,7.4,8.4l1.9,51.9c0.1,1.4,1.2,2.6,2.6,2.7c1.4,0.1,2.7-0.9,2.9-2.3l1.4-8.3c0-0.2,0-0.3,0-0.5
	c0-4.2,3-7.4,7-7.4c4.5,0,6.5,3.8,6.5,7.4v5.6c0,1.5,1.2,2.8,2.8,2.8c1.5,0,2.8-1.2,2.8-2.8c0-4.1,3.3-7.4,7.4-7.4
	c4.1,0,7.4,3.3,7.4,7.4v12.1c0,1.5,1.2,2.8,2.8,2.8c1.5,0,2.8-1.2,2.8-2.8v-7.1c1.1-0.5,3.3-1.3,4.6-1.3c3.3,0,6.5,2.7,6.5,5.6
	C458.1,391.6,457.2,425.8,452.9,434.5z"/>
</svg>
