<?xml version="1.0"?>
<svg xmlns="http://www.w3.org/2000/svg" id="Layer_1" data-name="Layer 1" viewBox="0 0 512 512" width="512" height="512"><title>Cargo container</title><path d="M319,239H33V368H319ZM76,343.3a7,7,0,0,1-14,0V262.767a7,7,0,0,1,14,0Zm54,0a7,7,0,0,1-14,0V262.767a7,7,0,0,1,14,0Zm53,0a7,7,0,0,1-14,0V262.767a7,7,0,0,1,14,0Zm53,0a7,7,0,0,1-14,0V262.767a7,7,0,0,1,14,0Zm54,0a7,7,0,0,1-14,0V262.767a7,7,0,0,1,14,0Z"/><path d="M62.111,225H290.647L185,180.9V157.748c10-3.641,18.273-13.777,18.273-25.688A27.309,27.309,0,0,0,183,105.841V83h3.067a6.964,6.964,0,0,0,6.791-5.261l10.067-40.247a6.786,6.786,0,0,0-1.274-5.9A6.905,6.905,0,0,0,196.134,29H155.866a6.867,6.867,0,0,0-6.791,8.559l10.067,40.2A6.942,6.942,0,0,0,165.933,83H169v28.926a7,7,0,0,0,7,7,13.134,13.134,0,1,1-13.134,13.134,7,7,0,0,0-7-7,6.882,6.882,0,0,0-6.86,7A26.764,26.764,0,0,0,171,158.675v22.134Z"/><path d="M83.464,469.185a32.517,32.517,0,0,0,32.314-31.569c.009-.29.008-.525.008-.753a32.224,32.224,0,0,0-8.623-21.977l-.135-.135c-.047-.047-.093-.095-.139-.144a32.014,32.014,0,0,0-8-6.149l-.03-.016a32.38,32.38,0,0,0-30.822,0,32.023,32.023,0,0,0-8.01,6.161c-.046.049-.091.1-.138.143l-.133.133a32.262,32.262,0,0,0-8.624,21.979c0,.228,0,.463.006.691A32.535,32.535,0,0,0,83.464,469.185Z"/><path d="M23,409v22H37.54c1.025-8,4.012-15,8.7-22Z"/><path d="M130.867,409h-10.19a56.921,56.921,0,0,1,5.1,8.7A57.78,57.78,0,0,1,130.867,409Z"/><path d="M183.5,408.459l-.031-.017a32.347,32.347,0,0,0-15.4-3.9,31.912,31.912,0,0,0-15.4,3.9l-.027.015a32.317,32.317,0,0,0-16.89,28.406c0,.221,0,.448.007.668a32.363,32.363,0,0,0,32.12,31.654c17.391,0,32.125-14.12,32.125-31.491v-.831c0-.869.17-1.653.117-2.4A31.973,31.973,0,0,0,183.5,408.459Z"/><path d="M424.382,469.185A32.506,32.506,0,0,0,456.7,437.622c.007-.264.006-.517.006-.76,0-.81-.029-1.607-.087-2.369a32.322,32.322,0,0,0-64.557,2.369c0,.236,0,.481,0,.72A32.517,32.517,0,0,0,424.382,469.185Z"/><path d="M455.989,341H434v25.487c0,3.867-3.5,6.513-7.367,6.513H364V359h56V340.543c-12-2.961-21-13.572-21-26.175V262h14v52.368c0,7.169,6.089,12.632,13.257,12.632h29.732A47.225,47.225,0,0,1,464,328.065v-5.291a2.984,2.984,0,0,0-.181-1.023,4.241,4.241,0,0,1-.208-.487L448.661,262H478a7,7,0,0,0,0-14H356.616A6.361,6.361,0,0,0,350,254.614V409H205.334c4.613,7,7.625,14,8.661,22H349.616l28.854-.1a46.312,46.312,0,0,1,91.827.1H489V374.368C489,356.172,474.186,341,455.989,341Zm-92.373,61.432v-.271c0,.046.007.09.007.136S363.617,402.387,363.616,402.432Z"/></svg>
