<?xml version="1.0" encoding="utf-8"?>
<!-- Generator: Adobe Illustrator 21.0.0, SVG Export Plug-In . SVG Version: 6.00 Build 0)  -->
<svg version="1.1" id="Capa_1" xmlns="http://www.w3.org/2000/svg" xmlns:xlink="http://www.w3.org/1999/xlink" x="0px" y="0px"
	 viewBox="0 0 512 512" style="enable-background:new 0 0 512 512;" xml:space="preserve">
<style type="text/css">
	.st0{fill:#7E3B04;}
	.st1{fill:#DB8D07;}
	.st2{fill:#DDDDDB;}
	.st3{fill:#1ABB9C;}
	.st4{fill:#2A3F54;}
	.st5{fill:#192E3F;}
	.st6{enable-background:new    ;}
	.st7{opacity:0.3;}
	.st8{fill:#055646;}
	.st9{opacity:0.72;}
</style>
<g>
	<polygon class="st0" points="256,17.7 326.6,88.3 512,88.3 441.4,17.7 	"/>
	<polygon class="st0" points="256,88.3 185.4,17.7 0,17.7 70.6,88.3 	"/>
</g>
<polygon class="st1" points="326.6,88.3 256,17.7 185.4,17.7 256,88.3 "/>
<path class="st2" d="M194.2,211.9h-44.1c0-19.4-15.9-35.3-35.3-35.3s-35.3,15.9-35.3,35.3H35.3V256h158.9V211.9z"/>
<path class="st3" d="M194.2,220.7V256H35.3v-35.3H0v273.7h229.5v-88.3V220.7H194.2z"/>
<path class="st4" d="M326.6,176.6H256V88.3H70.6v123.6h8.8c0-19.4,15.9-35.3,35.3-35.3s35.3,15.9,35.3,35.3h44.1v8.8h35.3v185.4H512
	V88.3H326.6V176.6z"/>
<rect x="256" y="88.3" class="st1" width="70.6" height="88.3"/>
<polygon class="st0" points="35.3,211.9 70.6,211.9 70.6,88.3 0,17.7 0,220.7 35.3,220.7 "/>
<g>
	<polygon class="st5" points="256,17.7 326.6,88.3 512,88.3 441.4,17.7 	"/>
</g>
<g class="st6">
	<g>
		<polygon class="st5" points="256,88.3 185.4,17.7 0,17.7 70.6,88.3 		"/>
	</g>
	<g class="st7">
		<polygon points="326.6,88.3 256,17.7 185.4,17.7 256,88.3 		"/>
	</g>
	<g>
		<polygon class="st5" points="35.3,211.9 70.6,211.9 70.6,88.3 0,17.7 0,220.7 35.3,220.7 		"/>
	</g>
	<g class="st7">
		<path d="M150.1,203c0-19.4-15.9-35.3-35.3-35.3S79.4,183.6,79.4,203h-8.8v8.8h8.8c0-19.4,15.9-35.3,35.3-35.3s35.3,15.9,35.3,35.3
			h44.1V203H150.1z"/>
	</g>
	<g class="st7">
		<polygon points="229.5,211.9 203,211.9 194.2,211.9 194.2,220.7 203,220.7 229.5,220.7 229.5,406.1 238.3,406.1 238.3,211.9 		"/>
	</g>
</g>
<g>
	<path class="st8" d="M44.1,344.3c-2.6,0-4.4-0.9-6.2-2.6l-12.4-12.4c-3.5-3.5-3.5-7.9,0-11.5l0.9-0.9c3.5-3.5,7.9-3.5,11.5,0l0,0
		c3.5,3.5,7.9,3.5,11.5,0l26.5-26.5c3.5-3.5,7.9-3.5,11.5,0l0.9,0.9c3.5,3.5,3.5,7.9,0,11.5l-38.8,38.8
		C48.6,343.4,46.8,344.3,44.1,344.3z"/>
	<path class="st8" d="M203,300.1h-88.3c-5.3,0-8.8-3.5-8.8-8.8l0,0c0-5.3,3.5-8.8,8.8-8.8H203c5.3,0,8.8,3.5,8.8,8.8l0,0
		C211.9,296.6,208.3,300.1,203,300.1z"/>
	<path class="st8" d="M195.1,326.6h-81.2c-4.4,0-7.9-3.5-7.9-7.9v-1.8c0-4.4,3.5-7.9,7.9-7.9h81.2c4.4,0,7.9,3.5,7.9,7.9v1.8
		C203,323.1,199.5,326.6,195.1,326.6z"/>
	<path class="st8" d="M203.9,370.8h-90c-4.4,0-7.9-3.5-7.9-7.9V361c0-4.4,3.5-7.9,7.9-7.9h90c4.4,0,7.9,3.5,7.9,7.9v1.8
		C211.9,367.2,208.3,370.8,203.9,370.8z"/>
	<path class="st8" d="M195.1,397.2h-81.2c-4.4,0-7.9-3.5-7.9-7.9v-1.8c0-4.4,3.5-7.9,7.9-7.9h81.2c4.4,0,7.9,3.5,7.9,7.9v1.8
		C203,393.7,199.5,397.2,195.1,397.2z"/>
	<path class="st8" d="M203.9,441.4h-90c-4.4,0-7.9-3.5-7.9-7.9v-1.8c0-4.4,3.5-7.9,7.9-7.9h90c4.4,0,7.9,3.5,7.9,7.9v1.8
		C211.9,437.8,208.3,441.4,203.9,441.4z"/>
	<path class="st8" d="M195.1,467.9h-81.2c-4.4,0-7.9-3.5-7.9-7.9v-1.8c0-4.4,3.5-7.9,7.9-7.9h81.2c4.4,0,7.9,3.5,7.9,7.9v1.8
		C203,464.3,199.5,467.9,195.1,467.9z"/>
</g>
<g>
	<path class="st1" d="M344.3,309H309c-5.3,0-8.8,3.5-8.8,8.8v8.8c0,11.5,7.1,21.2,17.7,24.7v10.6h-17.7v17.7h53v-17.7h-17.7v-10.6
		c10.6-3.5,17.7-13.2,17.7-24.7v-8.8C353.1,312.5,349.6,309,344.3,309z M326.6,335.4c-5.3,0-8.8-3.5-8.8-8.8h17.7
		C335.4,331.9,331.9,335.4,326.6,335.4z"/>
</g>
<g>
	<g class="st9">
		<path class="st1" d="M402.5,309.8l-17.7,8.8l7.9,15.9l5.3-2.6v47.7h17.7v-47.7l5.3,2.6l7.9-15.9l-17.7-8.8
			C407.8,309,404.3,309,402.5,309.8z"/>
	</g>
	<g class="st9">
		<path class="st1" d="M480.2,318.7l-17.7-8.8c-2.6-0.9-5.3-0.9-7.9,0l-17.7,8.8l7.9,15.9l5.3-2.6v47.7h17.7v-47.7l5.3,2.6
			L480.2,318.7z"/>
	</g>
</g>
</svg>
