<svg height="474pt" viewBox="0 -16 474.00271 474" width="474pt" xmlns="http://www.w3.org/2000/svg"><path d="m114 358.527344-25.472656 20.390625 25.472656 20.386719zm0 0"/><path d="m101.59375 407-23.890625-19.121094-23.886719 19.121094zm0 0"/><path d="m114 288.347656-25.472656 20.390625 25.472656 20.390625zm0 0"/><path d="m114 218.171875-25.472656 20.390625 25.472656 20.386719zm0 0"/><path d="m114 148-25.472656 20.386719 25.472656 20.386719zm0 0"/><path d="m77.703125 369.949219 32.632813-26.121094-32.632813-26.125-32.628906 26.125zm0 0"/><path d="m412.03125 36h-101.167969l50.582031 62.414062zm0 0"/><path d="m128 36v25.660156c0 .480469.160156.972656.160156 1.472656 0 .496094-.160156.992188-.160156 1.46875v2.78125l25.675781-31.382812zm0 0"/><path d="m77.703125 159.421875 32.632813-26.121094-32.632813-26.117187-32.628906 26.117187zm0 0"/><path d="m77.703125 299.769531 32.632813-26.121093-32.632813-26.121094-32.628906 26.121094zm0 0"/><path d="m114 77.828125-25.46875 20.386719 25.46875 20.386718zm0 0"/><path d="m77.703125 229.59375 32.632813-26.121094-32.632813-26.117187-32.628906 26.117187zm0 0"/><path d="m77.703125 37.011719-32.628906 26.121093 32.628906 26.117188 32.632813-26.117188zm0 0"/><path d="m419 103v-53.070312l-42.75 53.070312zm0 0"/><path d="m156 421h-156v21h156zm0 0"/><path d="m41 358.527344v40.777344l25.472656-20.386719zm0 0"/><path d="m167.511719 41.425781-39.511719 48.125v13.449219h89.488281zm0 0"/><path d="m346.644531 103-49.773437-61.410156-49.773438 61.410156zm0 0"/><path d="m282.878906 36h-101.171875l50.585938 62.414062zm0 0"/><path d="m41 288.347656v40.78125l25.472656-20.390625zm0 0"/><path d="m41 148v40.773438l25.472656-20.386719zm0 0"/><path d="m101.59375 0h-47.773438l23.882813 19.121094zm0 0"/><path d="m41 7.660156v40.773438l25.472656-20.386719zm0 0"/><path d="m41 218.171875v40.777344l25.472656-20.386719zm0 0"/><path d="m114 7.660156-25.472656 20.386719 25.472656 20.386719zm0 0"/><path d="m41 77.828125v40.773437l25.46875-20.386718zm0 0"/><path d="m467.1875 188h-14.367188l-65.992187-82.191406c-1.363281-1.660156-3.414063-2.605469-5.566406-2.554688-2.148438-.003906-4.175781.988282-5.484375 2.691406l-61.878906 82.054688h-18.351563c-3.863281 0-6.546875 3.402344-6.546875 7.261719v103.714843c0 3.867188 2.683594 7.023438 6.546875 7.023438h171.640625c1.839844-.011719 3.597656-.761719 4.878906-2.082031 1.28125-1.320313 1.976563-3.101563 1.933594-4.941407v-103.714843c.105469-3.878907-2.933594-7.121094-6.8125-7.261719zm-135.761719 0 50.113281-66.535156 53.339844 66.535156zm0 0"/></svg>