<?xml version="1.0" encoding="utf-8"?>
<!-- Generator: Adobe Illustrator 21.0.0, SVG Export Plug-In . SVG Version: 6.00 Build 0)  -->
<svg version="1.1" id="Capa_1" xmlns="http://www.w3.org/2000/svg" xmlns:xlink="http://www.w3.org/1999/xlink" x="0px" y="0px"
	 viewBox="0 0 512 512" style="enable-background:new 0 0 512 512;" xml:space="preserve">
<style type="text/css">
	.st0{fill:#DB8D07;}
	.st1{fill:#1ABB9C;}
	.st2{fill:#2A3F54;}
	.st3{fill:#DDDDDB;}
	.st4{fill:#19937B;}
	.st5{fill:#364061;}
</style>
<g>
	<path class="st0" d="M416.5,387.4c0,24.3,19.1,43.4,43.4,43.4s43.4-19.1,43.4-43.4H416.5z"/>
	<path class="st0" d="M243,387.4h-43.4c0,24.3,19.1,43.4,43.4,43.4s43.4-19.1,43.4-43.4H243z"/>
</g>
<path d="M203.1,404.7h79.8c2.6-5.2,3.5-11.3,3.5-17.4H243h-43.4C199.6,393.4,201.3,399.5,203.1,404.7z"/>
<path class="st0" d="M35.6,396c4.3,20,21.7,34.7,42.5,34.7s38.2-14.8,42.5-34.7H35.6z"/>
<path class="st1" d="M216.9,127v234.3h286.4V127H440l0,0c1.7,1.7,2.6,4.3,4.3,6.1c0,0,0,0.9,0.9,0.9c0.9,1.7,2.6,4.3,3.5,6.1v0.9
	c1.7,3.5,3.5,7.8,5.2,12.1c0,0.9,0.9,1.7,0.9,2.6c0.9,1.7,0.9,2.6,0.9,4.3c0.9,1.7,0.9,3.5,0.9,4.3c0,1.7,0.9,2.6,0.9,4.3
	s0.9,4.3,0.9,6.1c0,0.9,0,2.6,0,3.5c0,3.5,0.9,6.1,0.9,9.5c0,57.3-46.9,104.1-104.1,104.1s-104.1-46.9-104.1-104.1
	c0-3.5,0-6.1,0.9-9.5c0-0.9,0-2.6,0-3.5c0-1.7,0.9-4.3,0.9-6.1s0.9-2.6,0.9-4.3c0-1.7,0.9-3.5,0.9-4.3c0-1.7,0.9-2.6,0.9-4.3
	c0-0.9,0.9-1.7,0.9-2.6c1.7-4.3,3.5-7.8,5.2-12.1V140c0.9-1.7,2.6-4.3,3.5-6.1c0,0,0-0.9,0.9-0.9c0.9-1.7,2.6-4.3,4.3-6.1l0,0
	C269.9,127,216.9,127,216.9,127z"/>
<path class="st2" d="M164.9,396V179.1H43.4c-9.5,0-17.4,7.8-17.4,17.4v79.8l-21.7,13C1.7,291,0,293.6,0,297.1V396L164.9,396
	L164.9,396z"/>
<rect x="43.4" y="196.4" class="st3" width="104.1" height="60.7"/>
<path d="M38.2,404.7h79c0.9-2.6,2.6-6.1,2.6-8.7H35.6C36.4,398.7,37.3,402.1,38.2,404.7z"/>
<rect x="112.8" y="274.6" class="st3" width="34.7" height="17.4"/>
<path d="M499.9,404.7c2.6-5.2,3.5-11.3,3.5-17.4h-86.8c0,6.1,1.7,12.1,3.5,17.4H499.9z"/>
<path class="st2" d="M512,396H190.9c-5.2,0-8.7-3.5-8.7-8.7V161.7H95.5v-17.4h95.5c5.2,0,8.7,3.5,8.7,8.7v225.6H512V396z"/>
<path class="st4" d="M450.3,127H259.7c-10.8,17.3-17.1,37.7-17.1,59.5c0,62.1,50.3,112.4,112.4,112.4s112.4-50.3,112.4-112.4
	C467.4,164.7,461.1,144.3,450.3,127z"/>
<circle class="st0" cx="355" cy="186.6" r="105.3"/>
<circle class="st3" cx="355" cy="186.6" r="79"/>
<g>
	<path class="st5" d="M355,186.6L355,186.6c-3.5-3.5-3.5-8.8,0-12.3l22.8-22.8c3.5-3.5,8.8-3.5,12.3,0l0,0c3.5,3.5,3.5,8.8,0,12.3
		l-22.8,22.8C363.8,190.1,358.5,190.1,355,186.6z"/>
	<path class="st5" d="M425.2,195.4h-8.8c-5.3,0-8.8-3.5-8.8-8.8l0,0c0-5.3,3.5-8.8,8.8-8.8h8.8c5.3,0,8.8,3.5,8.8,8.8l0,0
		C434,191.8,430.5,195.4,425.2,195.4z"/>
	<path class="st5" d="M355,133.9L355,133.9c-5.3,0-8.8-3.5-8.8-8.8v-8.8c0-5.3,3.5-8.8,8.8-8.8l0,0c5.3,0,8.8,3.5,8.8,8.8v8.8
		C363.8,130.4,360.3,133.9,355,133.9z"/>
	<path class="st5" d="M355,265.6L355,265.6c-5.3,0-8.8-3.5-8.8-8.8V248c0-5.3,3.5-8.8,8.8-8.8l0,0c5.3,0,8.8,3.5,8.8,8.8v8.8
		C363.8,262.1,360.3,265.6,355,265.6z"/>
	<path class="st5" d="M293.6,195.4h-8.8c-5.3,0-8.8-3.5-8.8-8.8l0,0c0-5.3,3.5-8.8,8.8-8.8h8.8c5.3,0,8.8,3.5,8.8,8.8l0,0
		C302.3,191.8,298.8,195.4,293.6,195.4z"/>
</g>
</svg>
