<?xml version="1.0" encoding="iso-8859-1"?>
<!-- Generator: Adobe Illustrator 19.0.0, SVG Export Plug-In . SVG Version: 6.00 Build 0)  -->
<svg version="1.1" id="Capa_1" xmlns="http://www.w3.org/2000/svg" xmlns:xlink="http://www.w3.org/1999/xlink" x="0px" y="0px"
	 viewBox="0 0 512 512" style="enable-background:new 0 0 512 512;" xml:space="preserve">
<g>
	<path style="fill:#7E3B04;" d="M306.68,394.613c-0.866-2.599-0.866-4.332-1.733-6.931c0-0.866,0-2.599-0.866-3.465
		c0-1.733-0.866-3.465-0.866-5.198c0-3.465-0.866-6.064-0.866-9.53c0-57.178,46.782-103.959,103.959-103.959
		c3.465,0,6.064,0,9.53,0.866c0.866,0,1.733,0,2.599,0c2.599,0,4.332,0.866,6.931,0.866c0.866,0,1.733,0,2.599,0.866
		c2.599,0.866,6.064,1.733,8.663,2.599h0.866c2.599,0.866,5.198,1.733,6.931,2.599c0.866,0,1.733,0.866,2.599,0.866
		c1.733,0.866,3.465,1.733,5.198,2.599c0.866,0.866,1.733,0.866,2.599,1.733c2.599,1.733,5.198,2.599,6.931,4.332
		c0.866,0.866,1.733,0.866,2.599,1.733c1.733,0.866,3.465,2.599,4.332,3.465c0.866,0.866,1.733,1.733,3.465,2.599
		c0.866,0.866,2.599,2.599,3.465,3.465c0.866,0.866,1.733,1.733,2.599,2.599c1.733,1.733,3.465,3.465,5.198,5.198
		c0.866,0.866,1.733,2.599,3.465,3.465c0.866,0.866,1.733,2.599,2.599,3.465c0.866,0.866,1.733,2.599,2.599,3.465
		c0.866,0.866,1.733,2.599,1.733,3.465c0.866,1.733,1.733,2.599,2.599,4.332c0.866,2.599,2.599,4.332,3.465,6.931V221.347H381.184
		H259.898v181.929h49.381c-0.866-2.599-1.733-5.198-2.599-7.797V394.613z"/>
	<path style="fill:#7E3B04;" d="M181.929,221.347v51.98H95.296v-51.98h-77.97v181.929h242.572V221.347H181.929z M43.316,368.623
		h17.327H43.316z M77.97,368.623h17.327H77.97z M112.623,368.623h17.327H112.623z"/>
</g>
<polygon style="fill:#DB8D07;" points="181.929,273.327 181.929,221.347 138.613,221.347 95.296,221.347 95.296,273.327 "/>
<path style="fill:#7E3B04;" d="M259.898,221.347h121.286V39.418h-77.97v51.98h-86.633v-51.98h-77.97v181.929h43.316H259.898z
	 M251.235,186.694h-17.327H251.235z M216.582,186.694h-17.327H216.582z M181.929,186.694h-17.327H181.929z"/>
<g>
	<rect x="216.582" y="39.418" style="fill:#DB8D07;" width="86.633" height="51.98"/>
	<path style="fill:#DB8D07;" d="M499.005,320.108c-0.866-1.733-1.733-2.599-2.599-4.332c-0.866-0.866-1.733-2.599-1.733-3.465
		c-0.866-1.733-1.733-2.599-2.599-3.465s-1.733-2.599-2.599-3.465c-0.866-1.733-1.733-2.599-3.465-3.465
		c-1.733-1.733-3.465-3.465-5.198-5.198c-0.866-0.866-1.733-1.733-2.599-2.599c-0.866-0.866-2.599-2.599-3.465-3.465
		c-0.866-0.866-1.733-1.733-3.465-2.599s-3.465-2.599-4.332-3.465c-0.866-0.866-1.733-0.866-2.599-1.733
		c-2.599-1.733-4.332-2.599-6.931-4.332c-0.866-0.866-1.733-0.866-2.599-1.733c-1.733-0.866-3.465-1.733-5.198-2.599
		c-0.866,0-1.733-0.866-2.599-0.866c-2.599-0.866-5.198-1.733-6.931-2.599h-0.866c-2.599-0.866-6.064-1.733-8.663-2.599
		c-0.866,0-1.733,0-2.599-0.866c-2.599,0-4.332-0.866-6.931-0.866c-0.866,0-1.733,0-2.599,0c-5.198-1.733-7.797-1.733-11.262-1.733
		c-57.178,0-103.959,46.782-103.959,103.959c0,3.465,0,6.064,0.866,9.53c0,1.733,0.866,3.465,0.866,5.198
		c0,0.866,0,2.599,0.866,3.465c0.866,2.599,0.866,4.332,1.733,6.931c0,0.866,0,0.866,0,1.733c0.866,2.599,1.733,5.198,2.599,7.797
		l0,0c13.861,40.717,52.846,69.306,97.895,69.306C465.218,472.582,512,425.8,512,368.623
		C511.134,351.296,506.802,334.836,499.005,320.108z"/>
</g>
<g style="opacity:0.3;enable-background:new    ;">
	<rect x="259.898" y="221.347" width="8.663" height="173.266"/>
</g>
<g style="enable-background:new    ;">
	<g style="opacity:0.3;">
		<rect x="138.613" y="212.684" width="242.572" height="8.663"/>
	</g>
	<g style="opacity:0.3;">
		<path d="M309.279,403.276c-0.866-2.599-1.733-5.198-2.599-7.797v-0.866H0v17.327h312.744
			C311.878,409.34,310.146,405.875,309.279,403.276z"/>
	</g>
</g>
<g>
	<rect x="77.97" y="359.959" style="fill:#DB8D07;" width="17.327" height="17.327"/>
	<rect x="112.623" y="359.959" style="fill:#DB8D07;" width="17.327" height="17.327"/>
	<rect x="164.602" y="178.03" style="fill:#DB8D07;" width="17.327" height="17.327"/>
	<rect x="199.255" y="178.03" style="fill:#DB8D07;" width="17.327" height="17.327"/>
	<rect x="233.909" y="178.03" style="fill:#DB8D07;" width="17.327" height="17.327"/>
</g>
<g>
	<path style="fill:#DDDDDB;" d="M485.144,368.623c0-33.787-26.856-60.643-60.643-60.643v17.327
		c24.257,0,43.316,19.059,43.316,43.316c0,16.46-9.53,31.188-24.257,38.118l5.198-7.797l-14.728-9.53l-17.327,25.99
		c-2.599,4.332-1.733,9.53,2.599,12.129l25.99,17.327l9.53-14.728l-8.663-6.064C469.55,416.271,485.144,394.613,485.144,368.623z"/>
	<path style="fill:#DDDDDB;" d="M369.056,292.386l-9.53,14.728l8.663,6.064c-23.391,7.797-38.985,29.455-38.985,55.445
		c0,33.787,26.856,60.643,60.643,60.643v-17.327c-24.257,0-43.316-19.059-43.316-43.316c0-16.46,9.53-31.188,24.257-38.118
		l-5.198,7.797l14.728,9.53l17.327-25.99c2.599-4.332,1.733-9.53-2.599-12.129L369.056,292.386z"/>
</g>
<rect x="43.316" y="359.959" style="fill:#DB8D07;" width="17.327" height="17.327"/>
<g>
</g>
<g>
</g>
<g>
</g>
<g>
</g>
<g>
</g>
<g>
</g>
<g>
</g>
<g>
</g>
<g>
</g>
<g>
</g>
<g>
</g>
<g>
</g>
<g>
</g>
<g>
</g>
<g>
</g>
</svg>
